# This file uses meters as units for non-parametric coordinates.

mtllib Hands_Armor_Clean.mtl
g default
v -143.686295 3280.512665 400.827503
v -155.495834 3546.353577 434.691525
v 333.420944 3268.036316 227.788591
v 343.033600 3516.439484 236.162376
v -628.373337 3206.111572 232.730389
v -658.802032 3470.193146 246.363735
v -974.925232 3088.348816 -145.793343
v -1159.629440 3234.657715 -299.063587
v 860.248184 3327.181671 -319.737101
v 672.597122 3097.036407 -147.509766
v 614.694595 1179.892395 -356.193781
v 495.795822 1440.737579 -217.491555
v 250.262833 1420.489929 -89.582193
v 259.241867 1161.604736 -134.764159
v -33.505630 1160.051392 -61.955476
v -27.038574 1411.330841 -30.987382
v -316.575623 1172.618530 -105.759478
v -286.325073 1418.302582 -60.343266
v 627.704620 3113.863800 -284.073424
v 452.016068 1451.710175 -282.067084
v 221.952438 1431.811951 -160.096145
v 302.270889 3286.674927 81.644058
v -27.560425 1422.482727 -105.810928
v -145.223236 3301.487396 246.523094
v -258.914948 1428.358887 -131.940317
v -600.607300 3227.512024 85.756016
v -529.192352 1441.785858 -187.303495
v -727.114487 1211.493347 -336.732578
v -496.024704 1448.218964 -237.556887
v -940.456009 3105.074738 -258.013058
v -581.984711 348.248718 -236.146498
v -395.128250 866.129730 -333.825684
v -263.035202 874.564026 -280.541325
v -396.886444 286.816833 -135.001135
v -19.956207 879.031799 -247.426558
v -13.706970 239.243744 -72.556901
v 204.567719 872.576569 -270.515203
v 371.697998 257.807587 -147.374845
v 336.519241 858.865021 -336.951780
v 558.953857 316.210602 -259.824610
v -437.260056 891.669891 -287.747431
v -625.263977 372.590302 -190.227461
v -834.649277 255.413483 -259.286880
v -547.708511 1055.530212 -408.581543
v -290.022278 895.769928 -226.124310
v -298.598862 1073.231171 -289.213443
v -21.582794 898.045776 -189.015746
v -19.997787 1078.365753 -239.742851
v 232.767487 892.733429 -217.052221
v 241.567612 1070.359467 -279.447842
v 383.753586 881.174133 -292.295551
v 482.559586 1044.469116 -417.385197
v 606.009674 337.894104 -214.822817
v 815.073395 221.468781 -304.202747
v 402.170563 275.423096 -93.841457
v 466.374207 102.299164 -77.055001
v -12.269592 255.971191 -13.687062
v -18.177032 73.548553 28.259158
v -424.334717 305.987213 -80.302191
v -495.473480 135.747192 -59.096384
v 280.095673 3515.355347 109.167051
v 214.892197 1171.292542 -271.358991
v -160.890579 3552.854584 288.894653
v -606.813812 3475.446747 117.448711
v -1092.655182 3247.692535 -413.824368
v 782.988358 3330.973480 -433.317900
v 551.749039 1188.016174 -482.063103
v -43.165207 1166.301392 -207.623839
v -282.430649 1178.833435 -244.121265
v -679.685974 1216.779755 -468.550396
v -789.309692 225.467346 -344.159222
v -502.220917 1025.629089 -493.395662
v -267.080307 1044.897888 -380.760860
v -17.522430 1052.123688 -337.205482
v 206.838608 1040.395782 -369.222307
v 430.443954 1015.567444 -498.561287
v 764.231110 193.005798 -386.355686
v 431.276703 80.695770 -169.176912
v -20.616913 52.302216 -70.475888
v -465.061188 113.726471 -152.828455
v -105.620193 1956.838654 275.000477
v -221.607208 2056.393860 -36.360168
v -107.231522 2118.827484 1.250219
v 29.435730 2069.230316 -38.830900
v 24.215698 1918.844269 -59.040213
v -100.830460 1858.182190 -62.054682
v -215.629959 1925.796173 -63.372564
v -77.529907 716.231964 105.205345
v -246.505737 607.081268 -205.612230
v -167.022324 740.267609 -220.158720
v -11.317444 738.782166 -216.682029
v 64.881134 604.104279 -198.662472
v -16.042328 477.900360 -173.234570
v -170.310974 472.413300 -187.585616
v 47.853088 3023.923920 744.442463
v -190.771484 3011.919830 179.823875
v -79.145813 3107.975433 189.804554
v 57.878113 3069.071625 131.844711
v 87.416840 2921.606110 85.078192
v -24.285126 2825.101135 120.584393
v -161.592102 2870.566223 153.891945
v -704.710770 2490.558289 -564.838696
v -756.001282 2428.905151 -229.823589
v -679.184341 1970.485352 -315.192032
v -619.399261 2029.959534 -645.000553
v -597.261810 2549.049042 -820.137405
v -503.659821 2086.347626 -897.773170
v -129.608917 2643.748901 -950.542450
v -32.406616 2180.147217 -1027.660084
v 440.462875 2650.132416 -515.195274
v 333.758926 2675.698517 -737.641954
v 408.036804 2217.674683 -807.585526
v 492.206192 2197.600220 -577.492428
v 500.209808 2609.347198 -248.139739
v 526.585770 2163.010071 -302.200890
v -601.438904 1981.621979 -299.947071
v -677.921295 2439.406250 -215.939140
v -628.879929 2500.021027 -541.189241
v -544.191360 2039.954803 -619.634533
v -537.695694 2551.653717 -766.802692
v -445.609665 2089.035461 -842.787170
v -136.085510 2629.349182 -872.123432
v -40.036011 2165.713928 -949.343204
v 345.148468 2201.736115 -760.764551
v 273.813629 2657.600830 -687.843800
v 365.105820 2636.901520 -491.827011
v 415.123749 2187.662170 -558.535099
v 421.896744 2600.103424 -234.682274
v 447.327042 2157.218597 -293.035150
vt 0.726989 0.767614
vt 0.726042 0.828095
vt 0.849316 0.774970
vt 0.834722 0.831497
vt 0.602069 0.768620
vt 0.617106 0.824981
vt 0.473597 0.796679
vt 0.486464 0.851442
vt 0.959910 0.859781
vt 0.993472 0.795441
vt 0.074004 0.277839
vt 0.128992 0.311377
vt 0.154880 0.236459
vt 0.098337 0.218649
vt 0.100956 0.158880
vt 0.159536 0.162715
vt 0.097185 0.096461
vt 0.153309 0.101301
vt 0.889730 0.369677
vt 0.579466 0.508825
vt 0.591794 0.560838
vt 0.958115 0.451271
vt 0.603930 0.611712
vt 0.989656 0.544615
vt 0.615219 0.658172
vt 0.991757 0.645724
vt 0.092491 0.738573
vt 0.073505 0.811115
vt 0.627561 0.710052
vt 0.974621 0.746330
vt 0.104736 0.862680
vt 0.059806 0.890610
vt 0.147681 0.308889
vt 0.992969 0.762451
vt 0.865633 0.744375
vt 0.729924 0.732556
vt 0.584873 0.738446
vt 0.478302 0.769484
vt 0.089712 0.724154
vt 0.434932 0.912582
vt 0.171407 0.101091
vt 0.177254 0.162287
vt 0.172415 0.237963
vt 0.225252 0.471919
vt 0.354271 0.476251
vt 0.363427 0.508277
vt 0.220509 0.522389
vt 0.380116 0.562880
vt 0.234353 0.611510
vt 0.395927 0.613062
vt 0.270043 0.694922
vt 0.406994 0.645918
vt 0.304097 0.734625
vt 0.224713 0.921584
vt 0.998453 0.922351
vt 0.987333 0.974072
vt 0.219073 0.972314
vt 0.261795 0.915650
vt 0.266737 0.958398
vt 0.324373 0.903552
vt 0.327794 0.946389
vt 0.388376 0.902080
vt 0.382682 0.943856
vt 0.510158 0.894888
vt 0.479805 0.929682
vt 0.655392 0.906844
vt 0.655693 0.957012
vt 0.718517 0.893024
vt 0.722592 0.935626
vt 0.826764 0.893765
vt 0.824085 0.936754
vt 0.931694 0.906052
vt 0.926170 0.947510
vt 0.992375 0.904224
vt 0.930522 0.891567
vt 0.827794 0.880075
vt 0.721579 0.878782
vt 0.659746 0.891264
vt 0.514578 0.879260
vt 0.385927 0.888076
vt 0.322407 0.889858
vt 0.260574 0.901495
vt 0.228669 0.907504
vt 0.448063 0.171451
vt 0.951174 0.093215
vt 0.723948 0.861661
vt 0.838442 0.863288
vt 0.611999 0.857527
vt 0.479819 0.882495
vt 0.965449 0.891788
vt 0.041082 0.283538
vt 0.063807 0.214858
vt 0.066323 0.157745
vt 0.064414 0.097973
vt 0.077490 0.843818
vt 0.425252 0.957729
vt 0.992474 0.995956
vt 0.214134 0.993796
vt 0.271090 0.981124
vt 0.330522 0.969389
vt 0.379855 0.966904
vt 0.470783 0.950745
vt 0.649732 0.979023
vt 0.724624 0.958818
vt 0.822514 0.959740
vt 0.921908 0.970183
vt 0.452398 0.273249
vt 0.494479 0.367443
vt 0.960633 0.149601
vt 0.969448 0.201182
vt 0.939008 0.008826
vt 0.479132 0.010942
vt 0.593756 0.495204
vt 0.989393 0.297449
vt 0.583117 0.680659
vt 0.592438 0.611643
vt 0.432256 0.672952
vt 0.420366 0.628580
vt 0.582224 0.531955
vt 0.407495 0.585783
vt 0.549028 0.457481
vt 0.395962 0.547168
vt 0.501261 0.402991
vt 0.381117 0.503281
vt 0.221446 0.685306
vt 0.265575 0.686249
vt 0.239011 0.649888
vt 0.192995 0.647710
vt 0.174451 0.690568
vt 0.201995 0.726422
vt 0.245579 0.724608
vt 0.053978 0.666746
vt 0.097724 0.695675
vt 0.095179 0.646155
vt 0.050133 0.623692
vt 0.009148 0.652172
vt 0.015145 0.700274
vt 0.057417 0.722587
vt 0.409642 0.657337
vt 0.443956 0.742718
vt 0.461901 0.729363
vt 0.344163 0.716566
vt 0.358574 0.734356
vt 0.376480 0.749971
vt 0.399641 0.752940
vt 0.422816 0.751216
vt 0.318207 0.087035
vt 0.325193 0.013720
vt 0.222325 0.006422
vt 0.214858 0.079831
vt 0.313865 0.143925
vt 0.210523 0.140207
vt 0.310837 0.244953
vt 0.205595 0.248345
vt 0.312135 0.399675
vt 0.310758 0.349315
vt 0.209331 0.355370
vt 0.212623 0.407541
vt 0.314869 0.458328
vt 0.218094 0.468087
vt 0.442308 0.027110
vt 0.342033 0.016099
vt 0.335112 0.089551
vt 0.437739 0.098929
vt 0.330167 0.145746
vt 0.434490 0.153924
vt 0.328195 0.245017
vt 0.432853 0.251628
vt 0.430327 0.349317
vt 0.327717 0.348757
vt 0.329462 0.397585
vt 0.429017 0.397034
vt 0.331732 0.455479
vt 0.426745 0.456659
vt 0.204754 0.004783
vt 0.197525 0.078264
vt 0.194289 0.138386
vt 0.188478 0.248115
vt 0.193047 0.356350
vt 0.195611 0.409191
vt 0.200842 0.469734
vt 0.145066 0.687565
vt 0.204108 0.645375
vt 0.147425 0.021025
vt 0.078444 0.019012
vt 0.236848 0.641282
vt 0.163334 0.029753
vt 0.112599 0.686534
vt 0.041883 0.008275
vt 0.431221 0.896770
vt 0.048180 0.909741
vt 0.427573 0.980525
vt 0.221952 0.921808
vt 0.112762 0.849139
vn 0.514597 -0.393848 0.761626
vn 0.586862 0.401406 0.703183
vn -0.021515 0.314281 0.949086
vn 0.018307 -0.489114 0.872028
vn -0.571336 0.380575 0.727143
vn -0.410409 -0.513130 0.753831
vn -0.987769 0.020093 0.154627
vn -0.479793 -0.235746 0.845117
vn 0.504580 -0.163014 0.847836
vn 0.986205 0.107667 0.125729
vn 0.450789 -0.078858 0.889140
vn 0.961138 -0.270753 0.053920
vn 0.379325 0.061915 0.923190
vn 0.040591 0.110140 0.993087
vn 0.025099 -0.537315 0.843008
vn 0.367263 -0.537644 0.758984
vn -0.277565 0.105832 0.954860
vn -0.322848 -0.571164 0.754679
vn 0.538535 -0.121325 0.833823
vn 0.726789 -0.075997 0.682644
vn 0.496677 -0.116938 0.860022
vn 0.351929 -0.149023 0.924088
vn 0.004896 -0.175933 0.984390
vn 0.026594 -0.165655 0.985825
vn -0.473249 -0.206183 0.856460
vn -0.310002 -0.143229 0.939885
vn -0.403450 -0.081291 0.911383
vn -0.840803 -0.306588 0.446155
vn -0.647386 -0.208013 0.733227
vn -0.411809 -0.099279 0.905846
vn -0.805161 0.215542 0.552502
vn -0.949672 -0.083594 0.301885
vn -0.307000 -0.950315 -0.051508
vn 0.063501 -0.989056 -0.133175
vn 0.296614 -0.951391 -0.082920
vn 0.951810 0.048432 0.302841
vn 0.749889 0.377239 0.543468
vn 0.013554 0.989461 0.144165
vn 0.002314 0.989130 0.147027
vn -0.000521 0.987471 0.157803
vn -0.377335 0.302497 0.875279
vn -0.214171 0.277965 0.936411
vn -0.214485 0.280112 0.935700
vn -0.373262 0.300241 0.877799
vn 0.016544 0.254300 0.966984
vn -0.026307 0.265341 0.963796
vn 0.270568 0.259264 0.927133
vn 0.225105 0.268394 0.936639
vn 0.427842 0.288977 0.856413
vn 0.453382 0.304883 0.837551
vn -0.936702 0.087256 0.339082
vn -0.303848 0.302584 0.903393
vn -0.321037 0.269193 0.908003
vn -0.793475 0.523227 0.310855
vn -0.261623 0.083488 0.961552
vn -0.251105 0.679786 0.689084
vn -0.032471 0.007958 0.999441
vn -0.024129 0.654612 0.755580
vn 0.253021 0.024412 0.967153
vn 0.265577 0.698776 0.664215
vn 0.347096 0.233424 0.908316
vn 0.824529 0.537521 0.176701
vn 0.393278 0.290979 0.872160
vn 0.940121 0.113375 0.321433
vn 0.258950 0.413544 0.872884
vn 0.409230 -0.283503 0.867270
vn 0.050393 0.451189 0.891005
vn 0.020626 -0.273458 0.961663
vn -0.158399 0.439455 0.884188
vn -0.368287 -0.304457 0.878448
vn 0.593478 -0.337334 0.730746
vn 0.767880 0.265639 0.582920
vn 0.234439 0.948148 -0.214599
vn 0.034591 0.961353 -0.273138
vn -0.180521 0.960312 -0.212633
vn -0.724908 0.219344 0.652991
vn -0.537544 -0.374339 0.755590
vn 0.041485 -0.941394 0.334748
vn -0.016316 -0.949979 0.311888
vn -0.056825 -0.936791 0.345244
vn -0.032604 0.280256 -0.959371
vn -0.530608 0.230177 -0.815766
vn 0.494568 0.276734 -0.823906
vn 0.527315 0.225164 -0.819292
vn -0.552504 0.165052 -0.817005
vn -0.232747 -0.010736 -0.972478
vn -0.468952 0.057962 -0.881320
vn -0.082589 0.120008 -0.989332
vn 0.415780 0.113764 -0.902322
vn 0.256489 0.022082 -0.966295
vn 0.199286 -0.157698 -0.967169
vn 0.144571 -0.342508 -0.928325
vn 0.274792 -0.177567 -0.944965
vn -0.005301 -0.152550 -0.988281
vn -0.316714 -0.161299 -0.934706
vn -0.234239 -0.132514 -0.963105
vn -0.216997 -0.319675 -0.922345
vn -0.283752 -0.386989 -0.877339
vn -0.042686 -0.381971 -0.923188
vn 0.206722 -0.401281 -0.892322
vn 0.076831 -0.152304 0.985343
vn -0.030793 0.860126 0.509152
vn -0.867189 0.279232 0.412326
vn 0.823429 0.319635 0.468826
vn 0.780051 -0.510866 0.361300
vn -0.030412 -0.959405 0.280387
vn -0.791563 -0.529023 0.305880
vn -0.005647 0.229834 0.973213
vn -0.516953 0.831447 0.203609
vn -0.878820 0.001770 0.477150
vn 0.505887 0.846983 0.163398
vn 0.354214 -0.670369 0.652026
vn 0.905102 -0.002711 0.425185
vn -0.436471 -0.618530 0.653386
vn 0.272769 -0.079104 0.958822
vn -0.186467 0.964148 0.188807
vn -0.910715 0.158223 0.381529
vn 0.833042 0.550547 0.054207
vn 0.917984 -0.379872 0.114029
vn 0.290370 -0.920936 0.259926
vn -0.576497 -0.717582 0.390805
vn -0.931994 -0.294452 -0.211390
vn -0.988895 0.031778 -0.145179
vn -0.965432 0.024221 -0.259526
vn -0.905663 -0.272406 -0.324914
vn -0.580031 0.133177 -0.803634
vn -0.522895 -0.077746 -0.848844
vn 0.033004 0.292265 -0.955768
vn 0.094653 0.054510 -0.994017
vn 0.638212 0.091751 -0.764374
vn 0.572283 0.341168 -0.745719
vn 0.913338 0.315198 -0.257805
vn 0.968345 -0.028480 -0.247984
vn 0.951380 0.275252 -0.138245
vn 0.986186 -0.097537 -0.133876
vn 0.907494 0.297188 0.296875
vn 0.935297 0.294666 0.195940
vn 0.986483 -0.026283 0.161743
vn 0.963072 -0.054412 0.263689
vn 0.516780 0.188569 0.835093
vn 0.565611 -0.248207 0.786433
vn -0.047489 -0.377206 0.924911
vn -0.089667 0.035471 0.995340
vn -0.951858 0.029252 0.305139
vn -0.609744 -0.004710 0.792584
vn -0.571238 -0.412549 0.709570
vn -0.932515 -0.304610 0.193982
vn -0.978901 0.062268 0.194618
vn -0.965751 -0.243655 0.089199
s 1
g SH_Gloves_A
usemtl SH_Gloves_ASG1
f 3/3/1 4/4/2 2/2/3
f 2/2/3 1/1/4 3/3/1
f 1/1/4 2/2/3 6/6/5
f 6/6/5 5/5/6 1/1/4
f 6/6/5 8/8/7 7/7/8
f 7/7/8 5/5/6 6/6/5
f 3/3/1 10/10/9 9/9/10
f 9/9/10 4/4/2 3/3/1
f 10/183/9 12/12/11 11/11/12
f 11/11/12 9/182/10 10/183/9
f 13/13/13 16/16/14 15/15/15
f 15/15/15 14/14/16 13/13/13
f 16/16/14 18/18/17 17/17/18
f 17/17/18 15/15/15 16/16/14
s 7
f 20/20/19 19/19/20 22/22/21
f 22/22/21 21/21/22 20/20/19
f 21/21/22 22/22/21 24/24/23
f 24/24/23 23/23/24 21/21/22
f 23/23/24 24/24/23 26/26/25
f 26/26/25 25/25/26 23/23/24
s 1
f 27/27/27 7/7/8 8/8/7
f 8/8/7 28/28/28 27/27/27
s 7
f 25/25/26 26/26/25 30/30/29
f 30/30/29 29/29/30 25/25/26
s 1
f 17/17/18 18/18/17 27/184/27
f 27/184/27 28/185/28 17/17/18
f 13/13/13 14/14/16 11/11/12
f 11/11/12 12/12/11 13/13/13
f 20/33/31 12/12/11 10/183/9
f 10/183/9 19/186/32 20/33/31
f 22/35/33 19/34/32 10/10/9
f 10/10/9 3/3/1 22/35/33
f 24/36/34 22/35/33 3/3/1
f 3/3/1 1/1/4 24/36/34
f 26/37/35 24/36/34 1/1/4
f 1/1/4 5/5/6 26/37/35
f 7/7/8 30/38/36 26/37/35
f 26/37/35 5/5/6 7/7/8
f 30/38/36 7/7/8 27/27/27
f 27/27/27 29/39/37 30/38/36
f 18/18/17 25/41/38 29/187/37
f 29/187/37 27/184/27 18/18/17
f 23/42/39 25/41/38 18/18/17
f 18/18/17 16/16/14 23/42/39
f 21/43/40 23/42/39 16/16/14
f 16/16/14 13/13/13 21/43/40
f 20/33/31 21/43/40 13/13/13
f 13/13/13 12/12/11 20/33/31
s 9
f 31/44/41 34/47/42 33/46/43
f 33/46/43 32/45/44 31/44/41
f 34/47/42 36/49/45 35/48/46
f 35/48/46 33/46/43 34/47/42
f 36/49/45 38/51/47 37/50/48
f 37/50/48 35/48/46 36/49/45
f 37/50/48 38/51/47 40/53/49
f 40/53/49 39/52/50 37/50/48
s 12
f 43/32/51 42/31/52 41/54/53
f 41/54/53 44/57/54 43/32/51
f 45/58/55 46/59/56 44/57/54
f 44/57/54 41/54/53 45/58/55
f 47/60/57 48/61/58 46/59/56
f 46/59/56 45/58/55 47/60/57
f 49/62/59 50/63/60 48/61/58
f 48/61/58 47/60/57 49/62/59
f 51/40/61 52/96/62 50/63/60
f 50/63/60 49/62/59 51/40/61
f 52/65/62 51/64/61 53/66/63
f 53/66/63 54/67/64 52/65/62
f 55/68/65 56/69/66 54/67/64
f 54/67/64 53/66/63 55/68/65
f 57/70/67 58/71/68 56/69/66
f 56/69/66 55/68/65 57/70/67
f 59/72/69 60/73/70 58/71/68
f 58/71/68 57/70/67 59/72/69
f 42/55/52 43/56/51 60/73/70
f 60/73/70 59/72/69 42/55/52
f 32/83/71 41/54/53 42/31/52
f 42/31/52 31/194/72 32/83/71
f 34/75/73 31/74/72 42/55/52
f 42/55/52 59/72/69 34/75/73
f 36/76/74 34/75/73 59/72/69
f 59/72/69 57/70/67 36/76/74
f 38/77/75 36/76/74 57/70/67
f 57/70/67 55/68/65 38/77/75
f 53/66/63 40/78/76 38/77/75
f 38/77/75 55/68/65 53/66/63
f 40/78/76 53/66/63 51/64/61
f 51/64/61 39/79/77 40/78/76
f 37/80/78 39/190/77 51/40/61
f 51/40/61 49/62/59 37/80/78
f 47/60/57 35/81/79 37/80/78
f 37/80/78 49/62/59 47/60/57
f 45/58/55 33/82/80 35/81/79
f 35/81/79 47/60/57 45/58/55
f 41/193/53 32/83/71 33/82/80
f 33/82/80 45/58/55 41/193/53
s 1
f 63/86/81 2/2/3 4/4/2
f 4/4/2 61/87/82 63/86/81
f 64/88/83 6/6/5 2/2/3
f 2/2/3 63/86/81 64/88/83
f 65/89/84 8/8/7 6/6/5
f 6/6/5 64/88/83 65/89/84
f 61/87/82 4/4/2 9/9/10
f 9/9/10 66/90/85 61/87/82
f 11/11/12 67/91/86 66/188/85
f 66/188/85 9/182/10 11/11/12
f 62/92/87 14/14/16 15/15/15
f 15/15/15 68/93/88 62/92/87
f 68/93/88 15/15/15 17/17/18
f 17/17/18 69/94/89 68/93/88
f 8/8/7 65/89/84 70/95/90
f 70/95/90 28/28/28 8/8/7
f 69/94/89 17/17/18 28/185/28
f 28/185/28 70/189/90 69/94/89
f 67/91/86 11/11/12 14/14/16
f 14/14/16 62/92/87 67/91/86
s 12
f 44/57/54 72/98/91 71/191/92
f 71/191/92 43/32/51 44/57/54
f 72/98/91 44/57/54 46/59/56
f 46/59/56 73/99/93 72/98/91
f 73/99/93 46/59/56 48/61/58
f 48/61/58 74/100/94 73/99/93
f 74/100/94 48/61/58 50/63/60
f 50/63/60 75/101/95 74/100/94
f 75/101/95 50/63/60 52/96/62
f 52/96/62 76/192/96 75/101/95
f 54/67/64 77/103/97 76/102/96
f 76/102/96 52/65/62 54/67/64
f 77/103/97 54/67/64 56/69/66
f 56/69/66 78/104/98 77/103/97
f 78/104/98 56/69/66 58/71/68
f 58/71/68 79/105/99 78/104/98
f 79/105/99 58/71/68 60/73/70
f 60/73/70 80/106/100 79/105/99
f 80/106/100 60/73/70 43/56/51
f 43/56/51 71/97/92 80/106/100
s 1
f 63/107/81 68/109/88 69/110/89
f 69/110/89 64/108/83 63/107/81
f 69/110/89 70/114/90 65/113/84
f 65/113/84 64/108/83 69/110/89
s 12
f 71/115/92 72/117/91 80/116/100
f 73/118/93 79/119/99 80/116/100
f 80/116/100 72/117/91 73/118/93
f 74/120/94 78/121/98 79/119/99
f 79/119/99 73/118/93 74/120/94
f 75/122/95 77/123/97 78/121/98
f 78/121/98 74/120/94 75/122/95
f 76/124/96 77/123/97 75/122/95
s 20
f 81/125/101 83/127/102 82/126/103
f 81/125/101 84/128/104 83/127/102
f 81/125/101 85/129/105 84/128/104
f 81/125/101 86/130/106 85/129/105
f 81/125/101 87/131/107 86/130/106
f 81/125/101 82/126/103 87/131/107
s 21
f 88/132/108 90/134/109 89/133/110
f 88/132/108 91/135/111 90/134/109
f 88/132/108 93/137/112 92/136/113
f 92/136/113 91/135/111 88/132/108
f 88/132/108 94/138/114 93/137/112
f 88/132/108 89/133/110 94/138/114
s 23
f 95/139/115 97/141/116 96/140/117
f 95/139/115 98/143/118 97/142/116
f 95/139/115 99/144/119 98/143/118
f 95/139/115 100/145/120 99/144/119
f 95/139/115 101/146/121 100/145/120
f 95/139/115 96/140/117 101/146/121
s 24
f 104/149/122 103/148/123 102/147/124
f 102/147/124 105/150/125 104/149/122
f 105/150/125 102/147/124 106/151/126
f 106/151/126 107/152/127 105/150/125
f 108/153/128 109/154/129 107/152/127
f 107/152/127 106/151/126 108/153/128
f 112/157/130 111/156/131 110/155/132
f 110/155/132 113/158/133 112/157/130
f 113/158/133 110/155/132 114/159/134
f 114/159/134 115/160/135 113/158/133
f 111/156/131 112/157/130 109/154/129
f 109/154/129 108/153/128 111/156/131
f 118/163/136 117/162/137 116/161/138
f 116/161/138 119/164/139 118/163/136
f 120/165/140 118/163/136 119/164/139
f 119/164/139 121/166/141 120/165/140
f 121/166/141 123/168/142 122/167/143
f 122/167/143 120/165/140 121/166/141
f 126/171/144 125/170/145 124/169/146
f 124/169/146 127/172/147 126/171/144
f 128/173/148 126/171/144 127/172/147
f 127/172/147 129/174/149 128/173/148
f 123/168/142 124/169/146 125/170/145
f 125/170/145 122/167/143 123/168/142
f 105/150/125 119/176/139 116/175/138
f 116/175/138 104/149/122 105/150/125
f 103/148/123 117/162/137 118/163/136
f 118/163/136 102/147/124 103/148/123
f 107/152/127 121/177/141 119/176/139
f 119/176/139 105/150/125 107/152/127
f 102/147/124 118/163/136 120/165/140
f 120/165/140 106/151/126 102/147/124
f 121/177/141 107/152/127 109/154/129
f 109/154/129 123/178/142 121/177/141
f 122/167/143 108/153/128 106/151/126
f 106/151/126 120/165/140 122/167/143
f 113/158/133 127/180/147 124/179/146
f 124/179/146 112/157/130 113/158/133
f 111/156/131 125/170/145 126/171/144
f 126/171/144 110/155/132 111/156/131
f 115/160/135 129/181/149 127/180/147
f 127/180/147 113/158/133 115/160/135
f 110/155/132 126/171/144 128/173/148
f 128/173/148 114/159/134 110/155/132
f 123/178/142 109/154/129 112/157/130
f 112/157/130 124/179/146 123/178/142
f 125/170/145 111/156/131 108/153/128
f 108/153/128 122/167/143 125/170/145
s 1
f 61/84/82 62/85/87 68/109/88
f 68/109/88 63/107/81 61/84/82
f 66/112/85 67/111/86 62/85/87
f 62/85/87 61/84/82 66/112/85
